# xmcd
#
# Track frame offsets:
#	183
#	31123
#	74335
#	97750
#	130040
#	161228
#	187218
#	211823
#	236610
#
# Disc length: 3352 seconds
#
# Revision: 0
# Processed by: cddbd v1.5.1PL2 Copyright (c) Steve Scherf et al.
# Submitted via: audiograbber 1.83.01
#
DISCID=750d1609
DTITLE=Fred Wesley and The Horny Horns - Say Blow By Blow Backwards
DYEAR=1979
DGENRE=Funk
TTITLE0=We Came To Funk Ya
TTITLE1=Half A Man
TTITLE2=Say Blow By Blow Backwards
TTITLE3=Mr. Melody Man
TTITLE4=Just Like You
TTITLE5=Circular Motion
TTITLE6=Half A Man (Remix)
TTITLE7=Say Blow By Blow Backwards (Remix)
TTITLE8=Interview
EXTD=
EXTT0=
EXTT1=
EXTT2=
EXTT3=
EXTT4=
EXTT5=
EXTT6=
EXTT7=
EXTT8=
PLAYORDER=
